<mxfile host="app.diagrams.net" modified="2023-03-25T04:43:05.881Z" agent="Mozilla/5.0 (Windows NT 10.0; Win64; x64) AppleWebKit/537.36 (KHTML, like Gecko) Chrome/111.0.0.0 Safari/537.36" etag="xGBkHTGt_-pkHxKg_TPD" version="21.1.1" type="device">
  <diagram id="R2lEEEUBdFMjLlhIrx00" name="Page-1">
    <mxGraphModel dx="2163" dy="716" grid="1" gridSize="10" guides="1" tooltips="1" connect="1" arrows="1" fold="1" page="1" pageScale="1" pageWidth="850" pageHeight="1100" math="0" shadow="0" extFonts="Permanent Marker^https://fonts.googleapis.com/css?family=Permanent+Marker">
      <root>
        <mxCell id="0" />
        <mxCell id="1" parent="0" />
        <mxCell id="Tr9C4yGyDulfMdByBc1e-2" style="edgeStyle=orthogonalEdgeStyle;rounded=0;orthogonalLoop=1;jettySize=auto;html=1;entryX=0;entryY=0.5;entryDx=0;entryDy=0;" edge="1" parent="1" source="fI7OtCLKnp27f7Iw4nQO-1" target="Tr9C4yGyDulfMdByBc1e-1">
          <mxGeometry relative="1" as="geometry" />
        </mxCell>
        <mxCell id="fI7OtCLKnp27f7Iw4nQO-1" value="USER" style="rounded=0;whiteSpace=wrap;html=1;fillColor=#ffe6cc;strokeColor=#d79b00;" parent="1" vertex="1">
          <mxGeometry x="185" y="235" width="120" height="60" as="geometry" />
        </mxCell>
        <mxCell id="fI7OtCLKnp27f7Iw4nQO-4" style="edgeStyle=orthogonalEdgeStyle;rounded=0;orthogonalLoop=1;jettySize=auto;html=1;" parent="1" target="fI7OtCLKnp27f7Iw4nQO-1" edge="1">
          <mxGeometry relative="1" as="geometry">
            <mxPoint x="185" y="170" as="sourcePoint" />
          </mxGeometry>
        </mxCell>
        <mxCell id="fI7OtCLKnp27f7Iw4nQO-2" value="&lt;u&gt;#user id&lt;/u&gt;" style="ellipse;whiteSpace=wrap;html=1;fillColor=#d5e8d4;strokeColor=#82b366;" parent="1" vertex="1">
          <mxGeometry x="140" y="100" width="100" height="70" as="geometry" />
        </mxCell>
        <mxCell id="fI7OtCLKnp27f7Iw4nQO-5" style="edgeStyle=orthogonalEdgeStyle;rounded=0;orthogonalLoop=1;jettySize=auto;html=1;entryX=0;entryY=0.5;entryDx=0;entryDy=0;" parent="1" source="fI7OtCLKnp27f7Iw4nQO-3" target="fI7OtCLKnp27f7Iw4nQO-1" edge="1">
          <mxGeometry relative="1" as="geometry" />
        </mxCell>
        <mxCell id="fI7OtCLKnp27f7Iw4nQO-3" value="Name" style="ellipse;whiteSpace=wrap;html=1;fillColor=#e1d5e7;strokeColor=#9673a6;" parent="1" vertex="1">
          <mxGeometry x="-15" y="150" width="100" height="50" as="geometry" />
        </mxCell>
        <mxCell id="fI7OtCLKnp27f7Iw4nQO-7" style="edgeStyle=orthogonalEdgeStyle;rounded=0;orthogonalLoop=1;jettySize=auto;html=1;entryX=0;entryY=0.5;entryDx=0;entryDy=0;" parent="1" source="fI7OtCLKnp27f7Iw4nQO-6" target="fI7OtCLKnp27f7Iw4nQO-1" edge="1">
          <mxGeometry relative="1" as="geometry" />
        </mxCell>
        <mxCell id="fI7OtCLKnp27f7Iw4nQO-6" value="Email" style="ellipse;whiteSpace=wrap;html=1;fillColor=#e1d5e7;strokeColor=#9673a6;" parent="1" vertex="1">
          <mxGeometry x="-50" y="240" width="130" height="50" as="geometry" />
        </mxCell>
        <mxCell id="fI7OtCLKnp27f7Iw4nQO-9" style="edgeStyle=orthogonalEdgeStyle;rounded=0;orthogonalLoop=1;jettySize=auto;html=1;entryX=1;entryY=0.5;entryDx=0;entryDy=0;" parent="1" source="fI7OtCLKnp27f7Iw4nQO-8" target="fI7OtCLKnp27f7Iw4nQO-1" edge="1">
          <mxGeometry relative="1" as="geometry" />
        </mxCell>
        <mxCell id="fI7OtCLKnp27f7Iw4nQO-8" value="Phone Number" style="ellipse;whiteSpace=wrap;html=1;fillColor=#e1d5e7;strokeColor=#9673a6;" parent="1" vertex="1">
          <mxGeometry x="285" y="110" width="110" height="70" as="geometry" />
        </mxCell>
        <mxCell id="Tr9C4yGyDulfMdByBc1e-4" style="edgeStyle=orthogonalEdgeStyle;rounded=0;orthogonalLoop=1;jettySize=auto;html=1;entryX=0.5;entryY=1;entryDx=0;entryDy=0;" edge="1" parent="1" source="Tr9C4yGyDulfMdByBc1e-1" target="Tr9C4yGyDulfMdByBc1e-3">
          <mxGeometry relative="1" as="geometry" />
        </mxCell>
        <mxCell id="Tr9C4yGyDulfMdByBc1e-24" style="edgeStyle=orthogonalEdgeStyle;rounded=0;orthogonalLoop=1;jettySize=auto;html=1;entryX=1;entryY=0.5;entryDx=0;entryDy=0;" edge="1" parent="1" source="Tr9C4yGyDulfMdByBc1e-1" target="Tr9C4yGyDulfMdByBc1e-15">
          <mxGeometry relative="1" as="geometry" />
        </mxCell>
        <mxCell id="Tr9C4yGyDulfMdByBc1e-25" style="edgeStyle=orthogonalEdgeStyle;rounded=0;orthogonalLoop=1;jettySize=auto;html=1;entryX=1;entryY=0.5;entryDx=0;entryDy=0;" edge="1" parent="1" source="Tr9C4yGyDulfMdByBc1e-1" target="Tr9C4yGyDulfMdByBc1e-15">
          <mxGeometry relative="1" as="geometry" />
        </mxCell>
        <mxCell id="Tr9C4yGyDulfMdByBc1e-38" style="edgeStyle=orthogonalEdgeStyle;rounded=0;orthogonalLoop=1;jettySize=auto;html=1;" edge="1" parent="1" source="Tr9C4yGyDulfMdByBc1e-1">
          <mxGeometry relative="1" as="geometry">
            <mxPoint x="800" y="480" as="targetPoint" />
          </mxGeometry>
        </mxCell>
        <mxCell id="Tr9C4yGyDulfMdByBc1e-1" value="HAS" style="rhombus;whiteSpace=wrap;html=1;fillColor=#dae8fc;strokeColor=#6c8ebf;" vertex="1" parent="1">
          <mxGeometry x="450" y="350" width="80" height="80" as="geometry" />
        </mxCell>
        <mxCell id="Tr9C4yGyDulfMdByBc1e-3" value="PERSONAL DETAILS" style="rounded=0;whiteSpace=wrap;html=1;fillColor=#ffe6cc;strokeColor=#d79b00;" vertex="1" parent="1">
          <mxGeometry x="580" y="245" width="120" height="60" as="geometry" />
        </mxCell>
        <mxCell id="Tr9C4yGyDulfMdByBc1e-7" style="edgeStyle=orthogonalEdgeStyle;rounded=0;orthogonalLoop=1;jettySize=auto;html=1;" edge="1" parent="1" source="Tr9C4yGyDulfMdByBc1e-5" target="Tr9C4yGyDulfMdByBc1e-3">
          <mxGeometry relative="1" as="geometry" />
        </mxCell>
        <mxCell id="Tr9C4yGyDulfMdByBc1e-5" value="MEDICAL COLLEGE" style="ellipse;whiteSpace=wrap;html=1;fillColor=#e1d5e7;strokeColor=#9673a6;" vertex="1" parent="1">
          <mxGeometry x="500" y="90" width="120" height="80" as="geometry" />
        </mxCell>
        <mxCell id="Tr9C4yGyDulfMdByBc1e-8" style="edgeStyle=orthogonalEdgeStyle;rounded=0;orthogonalLoop=1;jettySize=auto;html=1;entryX=0;entryY=0.5;entryDx=0;entryDy=0;" edge="1" parent="1" source="Tr9C4yGyDulfMdByBc1e-6" target="Tr9C4yGyDulfMdByBc1e-3">
          <mxGeometry relative="1" as="geometry" />
        </mxCell>
        <mxCell id="Tr9C4yGyDulfMdByBc1e-6" value="Current city" style="ellipse;whiteSpace=wrap;html=1;fillColor=#e1d5e7;strokeColor=#9673a6;" vertex="1" parent="1">
          <mxGeometry x="420" y="190" width="120" height="80" as="geometry" />
        </mxCell>
        <mxCell id="Tr9C4yGyDulfMdByBc1e-10" style="edgeStyle=orthogonalEdgeStyle;rounded=0;orthogonalLoop=1;jettySize=auto;html=1;entryX=1;entryY=0.5;entryDx=0;entryDy=0;" edge="1" parent="1" source="Tr9C4yGyDulfMdByBc1e-9" target="Tr9C4yGyDulfMdByBc1e-3">
          <mxGeometry relative="1" as="geometry" />
        </mxCell>
        <mxCell id="Tr9C4yGyDulfMdByBc1e-9" value="Medical city" style="ellipse;whiteSpace=wrap;html=1;fillColor=#e1d5e7;strokeColor=#9673a6;" vertex="1" parent="1">
          <mxGeometry x="750" y="155" width="120" height="80" as="geometry" />
        </mxCell>
        <mxCell id="Tr9C4yGyDulfMdByBc1e-14" style="edgeStyle=orthogonalEdgeStyle;rounded=0;orthogonalLoop=1;jettySize=auto;html=1;" edge="1" parent="1" source="Tr9C4yGyDulfMdByBc1e-11" target="Tr9C4yGyDulfMdByBc1e-3">
          <mxGeometry relative="1" as="geometry" />
        </mxCell>
        <mxCell id="Tr9C4yGyDulfMdByBc1e-11" value="&lt;u&gt;#user id&lt;/u&gt;" style="ellipse;whiteSpace=wrap;html=1;fillColor=#fff2cc;strokeColor=#d6b656;" vertex="1" parent="1">
          <mxGeometry x="650" y="100" width="100" height="70" as="geometry" />
        </mxCell>
        <mxCell id="Tr9C4yGyDulfMdByBc1e-15" value="CHAT" style="rounded=0;whiteSpace=wrap;html=1;fillColor=#ffe6cc;strokeColor=#d79b00;" vertex="1" parent="1">
          <mxGeometry x="200" y="460" width="120" height="60" as="geometry" />
        </mxCell>
        <mxCell id="Tr9C4yGyDulfMdByBc1e-18" style="edgeStyle=orthogonalEdgeStyle;rounded=0;orthogonalLoop=1;jettySize=auto;html=1;entryX=0.5;entryY=0;entryDx=0;entryDy=0;" edge="1" parent="1" source="Tr9C4yGyDulfMdByBc1e-17" target="Tr9C4yGyDulfMdByBc1e-15">
          <mxGeometry relative="1" as="geometry" />
        </mxCell>
        <mxCell id="Tr9C4yGyDulfMdByBc1e-17" value="&lt;u&gt;#user id&lt;/u&gt;" style="ellipse;whiteSpace=wrap;html=1;fillColor=#fff2cc;strokeColor=#d6b656;" vertex="1" parent="1">
          <mxGeometry x="210" y="345" width="100" height="70" as="geometry" />
        </mxCell>
        <mxCell id="Tr9C4yGyDulfMdByBc1e-21" style="edgeStyle=orthogonalEdgeStyle;rounded=0;orthogonalLoop=1;jettySize=auto;html=1;entryX=0;entryY=0.5;entryDx=0;entryDy=0;" edge="1" parent="1" source="Tr9C4yGyDulfMdByBc1e-20" target="Tr9C4yGyDulfMdByBc1e-15">
          <mxGeometry relative="1" as="geometry" />
        </mxCell>
        <mxCell id="Tr9C4yGyDulfMdByBc1e-20" value="&lt;u&gt;#receiver id&lt;/u&gt;" style="ellipse;whiteSpace=wrap;html=1;fillColor=#fff2cc;strokeColor=#d6b656;" vertex="1" parent="1">
          <mxGeometry x="40" y="455" width="100" height="70" as="geometry" />
        </mxCell>
        <mxCell id="Tr9C4yGyDulfMdByBc1e-23" style="edgeStyle=orthogonalEdgeStyle;rounded=0;orthogonalLoop=1;jettySize=auto;html=1;entryX=0.5;entryY=1;entryDx=0;entryDy=0;" edge="1" parent="1" source="Tr9C4yGyDulfMdByBc1e-22" target="Tr9C4yGyDulfMdByBc1e-15">
          <mxGeometry relative="1" as="geometry" />
        </mxCell>
        <mxCell id="Tr9C4yGyDulfMdByBc1e-22" value="&lt;u&gt;chat message&lt;/u&gt;" style="ellipse;whiteSpace=wrap;html=1;fillColor=#e1d5e7;strokeColor=#9673a6;" vertex="1" parent="1">
          <mxGeometry x="40" y="550" width="100" height="70" as="geometry" />
        </mxCell>
        <mxCell id="Tr9C4yGyDulfMdByBc1e-27" style="edgeStyle=orthogonalEdgeStyle;rounded=0;orthogonalLoop=1;jettySize=auto;html=1;" edge="1" parent="1" source="Tr9C4yGyDulfMdByBc1e-26">
          <mxGeometry relative="1" as="geometry">
            <mxPoint x="260" y="530" as="targetPoint" />
          </mxGeometry>
        </mxCell>
        <mxCell id="Tr9C4yGyDulfMdByBc1e-26" value="Image File" style="ellipse;whiteSpace=wrap;html=1;fillColor=#e1d5e7;strokeColor=#9673a6;" vertex="1" parent="1">
          <mxGeometry x="340" y="550" width="100" height="70" as="geometry" />
        </mxCell>
        <mxCell id="Tr9C4yGyDulfMdByBc1e-30" value="Beyond Surgery" style="rounded=0;whiteSpace=wrap;html=1;fillColor=#ffe6cc;strokeColor=#d79b00;" vertex="1" parent="1">
          <mxGeometry x="740" y="485" width="120" height="60" as="geometry" />
        </mxCell>
        <mxCell id="Tr9C4yGyDulfMdByBc1e-31" style="edgeStyle=orthogonalEdgeStyle;rounded=0;orthogonalLoop=1;jettySize=auto;html=1;entryX=0.5;entryY=0;entryDx=0;entryDy=0;" edge="1" source="Tr9C4yGyDulfMdByBc1e-32" target="Tr9C4yGyDulfMdByBc1e-30" parent="1">
          <mxGeometry relative="1" as="geometry" />
        </mxCell>
        <mxCell id="Tr9C4yGyDulfMdByBc1e-32" value="&lt;u&gt;#user id&lt;/u&gt;" style="ellipse;whiteSpace=wrap;html=1;fillColor=#fff2cc;strokeColor=#d6b656;" vertex="1" parent="1">
          <mxGeometry x="860" y="370" width="100" height="70" as="geometry" />
        </mxCell>
        <mxCell id="Tr9C4yGyDulfMdByBc1e-33" style="edgeStyle=orthogonalEdgeStyle;rounded=0;orthogonalLoop=1;jettySize=auto;html=1;entryX=0;entryY=0.5;entryDx=0;entryDy=0;" edge="1" source="Tr9C4yGyDulfMdByBc1e-34" target="Tr9C4yGyDulfMdByBc1e-30" parent="1">
          <mxGeometry relative="1" as="geometry" />
        </mxCell>
        <mxCell id="Tr9C4yGyDulfMdByBc1e-34" value="&lt;u&gt;image/video&lt;/u&gt;" style="ellipse;whiteSpace=wrap;html=1;fillColor=#e1d5e7;strokeColor=#9673a6;" vertex="1" parent="1">
          <mxGeometry x="580" y="480" width="100" height="70" as="geometry" />
        </mxCell>
        <mxCell id="Tr9C4yGyDulfMdByBc1e-35" style="edgeStyle=orthogonalEdgeStyle;rounded=0;orthogonalLoop=1;jettySize=auto;html=1;entryX=0.5;entryY=1;entryDx=0;entryDy=0;" edge="1" source="Tr9C4yGyDulfMdByBc1e-36" target="Tr9C4yGyDulfMdByBc1e-30" parent="1">
          <mxGeometry relative="1" as="geometry" />
        </mxCell>
        <mxCell id="Tr9C4yGyDulfMdByBc1e-36" value="&lt;u&gt;Likes&lt;/u&gt;" style="ellipse;whiteSpace=wrap;html=1;fillColor=#e1d5e7;strokeColor=#9673a6;" vertex="1" parent="1">
          <mxGeometry x="580" y="575" width="100" height="70" as="geometry" />
        </mxCell>
        <mxCell id="Tr9C4yGyDulfMdByBc1e-40" style="edgeStyle=orthogonalEdgeStyle;rounded=0;orthogonalLoop=1;jettySize=auto;html=1;" edge="1" parent="1" source="Tr9C4yGyDulfMdByBc1e-39">
          <mxGeometry relative="1" as="geometry">
            <mxPoint x="800" y="550" as="targetPoint" />
          </mxGeometry>
        </mxCell>
        <mxCell id="Tr9C4yGyDulfMdByBc1e-39" value="&lt;u&gt;Comments&lt;/u&gt;" style="ellipse;whiteSpace=wrap;html=1;fillColor=#e1d5e7;strokeColor=#9673a6;" vertex="1" parent="1">
          <mxGeometry x="860" y="575" width="100" height="70" as="geometry" />
        </mxCell>
        <mxCell id="Tr9C4yGyDulfMdByBc1e-42" style="edgeStyle=orthogonalEdgeStyle;rounded=0;orthogonalLoop=1;jettySize=auto;html=1;entryX=1;entryY=0.5;entryDx=0;entryDy=0;" edge="1" parent="1" source="Tr9C4yGyDulfMdByBc1e-41" target="Tr9C4yGyDulfMdByBc1e-30">
          <mxGeometry relative="1" as="geometry" />
        </mxCell>
        <mxCell id="Tr9C4yGyDulfMdByBc1e-41" value="Post ID&lt;br&gt;" style="ellipse;whiteSpace=wrap;html=1;fillColor=#d5e8d4;strokeColor=#82b366;" vertex="1" parent="1">
          <mxGeometry x="910" y="480" width="100" height="70" as="geometry" />
        </mxCell>
        <mxCell id="Tr9C4yGyDulfMdByBc1e-44" style="edgeStyle=orthogonalEdgeStyle;rounded=0;orthogonalLoop=1;jettySize=auto;html=1;entryX=0;entryY=0.5;entryDx=0;entryDy=0;" edge="1" parent="1" source="Tr9C4yGyDulfMdByBc1e-43" target="Tr9C4yGyDulfMdByBc1e-15">
          <mxGeometry relative="1" as="geometry" />
        </mxCell>
        <mxCell id="Tr9C4yGyDulfMdByBc1e-43" value="&lt;u&gt;#Message ID&lt;/u&gt;" style="ellipse;whiteSpace=wrap;html=1;fillColor=#d5e8d4;strokeColor=#82b366;" vertex="1" parent="1">
          <mxGeometry x="50" y="360" width="100" height="70" as="geometry" />
        </mxCell>
        <mxCell id="Tr9C4yGyDulfMdByBc1e-46" style="edgeStyle=orthogonalEdgeStyle;rounded=0;orthogonalLoop=1;jettySize=auto;html=1;entryX=0.5;entryY=0;entryDx=0;entryDy=0;" edge="1" parent="1" source="Tr9C4yGyDulfMdByBc1e-45" target="Tr9C4yGyDulfMdByBc1e-3">
          <mxGeometry relative="1" as="geometry" />
        </mxCell>
        <mxCell id="Tr9C4yGyDulfMdByBc1e-45" value="Details ID" style="ellipse;whiteSpace=wrap;html=1;fillColor=#e1d5e7;strokeColor=#9673a6;" vertex="1" parent="1">
          <mxGeometry x="770" y="60" width="90" height="65" as="geometry" />
        </mxCell>
      </root>
    </mxGraphModel>
  </diagram>
</mxfile>
